Coordinates
version=1
nRows=7
nColumns=42
inDegrees=yes

Units are S.I. units (second, meters, Newtons, ...)
If the header above contains a line with 'inDegrees', this indicates whether rotational values are in degrees (yes) or radians (no).

endheader
time	pelvis_tilt	pelvis_list	pelvis_rotation	pelvis_tx	pelvis_ty	pelvis_tz	hip_flexion_r	hip_adduction_r	hip_rotation_r	knee_angle_r	knee_adduction_r	knee_angle_r_beta	ankle_angle_r	subtalar_angle_r	mtp_angle_r	hip_flexion_l	hip_adduction_l	hip_rotation_l	knee_angle_l	knee_adduction_l	knee_angle_l_beta	ankle_angle_l	subtalar_angle_l	mtp_angle_l	lumbar_extension	lumbar_bending	lumbar_rotation	arm_flex_r	arm_add_r	arm_rot_r	elbow_flex_r	pro_sup_r	wrist_flex_r	wrist_dev_r	arm_flex_l	arm_add_l	arm_rot_l	elbow_flex_l	pro_sup_l	wrist_flex_l	wrist_dev_l
      1.07000000	      9.03161238	     -2.99212166	      3.26523050	     -1.01754093	      0.90465262	      0.20945756	     -1.13315891	      4.63929015	     -9.99856620	     24.14067314	      7.23296165	      0.42133423	     19.31204159	     13.00269890	     -7.90764559	     16.11273082	     -3.03482056	     -6.06455141	     71.94928731	     -5.28481882	      1.25575196	      8.07091568	    -16.68743051	     -7.90764559	    -20.03836054	      6.38732618	     -2.98112355	      7.01113689	    -11.97618391	    -10.29308316	     34.96392592	     90.00000001	      0.00000000	      0.00000000	     -6.08080368	     -6.58202620	    -28.22107406	     33.46267831	     90.00000001	      0.00000000	      0.00000000
      1.08000000	      9.23134763	     -2.75819751	      3.09315830	     -1.01057654	      0.90538194	      0.20991360	     -2.11706884	      4.50087834	     -9.39257244	     23.66442673	      7.36833750	      0.41302216	     19.66634659	     12.76581161	     -7.89750401	     17.04844741	     -2.50445096	     -6.07558568	     70.71204057	     -5.29347273	      1.23415793	      8.66647617	    -16.16486547	     -7.89750401	    -20.46357717	      6.09827505	     -2.80179049	      7.75876382	    -12.20277099	     -9.23441778	     35.04432984	     90.00000001	      0.00000000	      0.00000000	     -6.35528024	     -6.41210088	    -28.25014136	     34.17091976	     90.00000001	      0.00000000	      0.00000000
      1.09000000	      9.37788642	     -2.52372869	      2.86608940	     -1.00359267	      0.90600622	      0.21043585	     -2.99701488	      4.37722835	     -8.85004201	     23.24840776	      7.38140290	      0.40576126	     19.83156572	     12.51887209	     -7.88496551	     17.93771341	     -1.98804524	     -6.29202611	     69.15416756	     -5.43550783	      1.20696792	      9.02916200	    -15.39985208	     -7.88496551	    -20.82034015	      5.79621239	     -2.56459931	      8.46140198	    -12.41602311	     -8.19991579	     35.16401083	     90.00000001	      0.00000000	      0.00000000	     -6.59569829	     -6.23292584	    -28.31150102	     34.77440315	     90.00000001	      0.00000000	      0.00000000
      1.10000000	      9.21430358	     -2.41317235	      2.68228193	     -0.99676401	      0.90593564	      0.21104659	     -3.33682887	      4.45642116	     -8.60207388	     23.14968105	      7.10974046	      0.40403816	     19.91456208	     12.45005416	     -7.87862075	     19.22331685	     -1.64949875	     -6.20122946	     67.56222496	     -5.31032602	      1.17918328	      9.22358353	    -14.67853329	     -7.87862075	    -20.80880587	      5.61457346	     -2.28258645	      9.05222723	    -12.48403993	     -7.90368667	     35.38783902	     90.00000001	      0.00000000	      0.00000000	     -6.75750828	     -6.06475310	    -28.28296170	     35.15539329	     90.00000001	      0.00000000	      0.00000000
      1.11000000	      9.45831023	     -2.09808025	      2.37195952	     -0.98961804	      0.90666564	      0.21165812	     -4.35114226	      4.16878230	     -8.03780529	     22.73661547	      7.22498313	      0.39682880	     20.38343562	     12.40091521	     -7.86808218	     19.68388314	     -1.13309550	     -6.49635378	     65.32182284	     -5.30676260	      1.14008088	      9.64394850	    -13.80494176	     -7.86808218	    -21.24769594	      5.18167429	     -2.06670006	      9.88668821	    -12.57367906	     -7.04439228	     35.20209584	     90.00000001	      0.00000000	      0.00000000	     -7.07742127	     -5.86021739	    -28.41751610	     35.91986596	     90.00000001	      0.00000000	      0.00000000
      1.12000000	      9.52858677	     -1.87614845	      2.07735832	     -0.98242936	      0.90697157	      0.21226064	     -5.11548371	      4.01398960	     -7.63316614	     22.39415127	      7.18272937	      0.39085167	     20.50291992	     12.46251031	     -7.85348663	     20.32709451	     -0.68659095	     -7.01843012	     62.93126381	     -5.61543546	      1.09835776	      9.88282262	    -12.48144556	     -7.85348663	    -21.45960353	      4.85603289	     -1.81252885	     10.53365846	    -12.70363716	     -6.20307012	     35.25094933	     90.00000001	      0.00000000	      0.00000000	     -7.31708085	     -5.64169502	    -28.58099454	     36.44694280	     90.00000001	      0.00000000	      0.00000000
      1.13000000	      9.25223742	     -1.85250657	      1.85290810	     -0.97549138	      0.90642635	      0.21293897	     -5.29356553	      4.18394735	     -7.38519231	     22.36536584	      6.86280826	      0.39034927	     20.63583745	     12.47177428	     -7.84741006	     21.44310621	     -0.51026822	     -6.81089187	     60.68101421	     -5.30342615	      1.05908349	      9.96036994	    -11.70937571	     -7.84741006	    -21.27925571	      4.74889189	     -1.50694070	     11.09071366	    -12.72579833	     -5.96343680	     35.38939839	     90.00000001	      0.00000000	      0.00000000	     -7.51217998	     -5.41920677	    -28.55987765	     36.83198614	     90.00000001	      0.00000000	      0.00000000
